<svg id="Lag_1" data-name="Lag 1" xmlns="http://www.w3.org/2000/svg" viewBox="0 0 10192.29 7946.86"><defs><style>.cls-1{fill:#005140;}.cls-2{fill:#00904a;}.cls-3{fill:#dc2f34;}</style></defs><path class="cls-1" d="M-5037.76-84.7c-4.66-762.46,835.71-1258.39,1935.28-1258.39,1102,0,2301.79,445.2,2301.79,2183.47V2362.69c0,317.3,126.1,525.25,368.88,525.25,240.47,0,366.5-207.91,366.5-525.25V-1343.09H161.24V2362.69c0,319.94,130.75,525.25,368.88,525.25,235.74,0,376-207.91,373.53-525.25-7-895.82-7,216-7-1522.31S2098.83-1343.09,3193.74-1343.09C4291-1343.09,5133.68-833.82,5133.68-84.7c-2.38,282.62-142.44,677.26-665.35,738.6C3242.59,800.51,3242.59-737.81,3978-860.66c-444.25-156.89-924-114.94-1342.27,117.35C2077.79-434,2098.83,467.12,2098.83,840.34V2362.65c0,1325.06-1704.12,1325.06-2052,711.85-347.78,613.38-2047.35,613.38-2047.35-711.85V840.38c0-373.22,23.38-1274.36-539.33-1583.65C-2956.06-977.34-3435-1019.36-3877.54-860.62c730.72,122.68,730.72,1661-492.6,1514.56C-4893,592.48-5037.76,197.92-5037.76-84.7Z" transform="translate(5058.61 4476.22)"/><path class="cls-2" d="M1841.9-1500.44c275.51-330.58,492.6-909.11,1134.57-735.88-175-605.15-1386.66-946.42-1965.78-493.25C434.1-2273.8,483.13-1807.08,690.84-1463.13S1358.72-921.91,1841.9-1500.44Z" transform="translate(5058.61 4476.22)"/><path class="cls-2" d="M-1767.2-1708.35c-105.1-567.88-359.54-914.43-1041.15-794.65,560.24-757.3,1676.16-727.83,2098.72-114.63S-473.88-1489.83-754-1239.29-1659.75-1140.3-1767.2-1708.35Z" transform="translate(5058.61 4476.22)"/><path class="cls-2" d="M-464.43-3281.35c119.14-455.77,506.64-743.8,273.09-1194.45,709.73-21.3,1050.54,778.51,952.51,1407.68-100.52,631.9-513.6,767.87-798.37,709.21C-324.51-2417.56-576.6-2846.79-464.43-3281.35Z" transform="translate(5058.61 4476.22)"/><path class="cls-3" d="M46.79-2137.58c137.05-1.9,249.51,123.67,251.17,280.47S189.87-1571.65,52.82-1569.74s-249.51-123.67-251.18-280.47c0-1.59,0-3.17,0-4.75C-197.75-2009.92-88.65-2135.7,46.79-2137.58Z" transform="translate(5058.61 4476.22)"/><path class="cls-3" d="M-2381.24,355.18c18.61,114.62,37.23,272,46.65,341.23C-3359.4,1090.93-3880,1605.52-3880,2136.13c0,677.26,553.32,1103.77,1498.76,487.93a969,969,0,0,1,16.34,216c-408.57,581.26-2588.94,1093.08-2689.31-541.21C-5166.32,472.53-3086,1027-2381.24,355.18Z" transform="translate(5058.61 4476.22)"/><path class="cls-3" d="M2453.64,355.18c-9.31,104-37.23,272-44.38,341.23,1022.5,394.52,1543.06,909.11,1543.06,1439.72,0,677.26-551,1103.77-1498.68,487.93a477.27,477.27,0,0,0-16.35,210.63c406.23,581.25,2589,1098.45,2689.32-535.89C5238.71,472.53,3161,1027,2453.64,355.18Z" transform="translate(5058.61 4476.22)"/></svg>