<svg id="Lag_1" data-name="Lag 1" xmlns="http://www.w3.org/2000/svg" viewBox="0 0 223.68 186.2"><defs><style>.cls-1{fill:#005140;}.cls-2{fill:#00904a;}.cls-3{fill:#dc2f34;}.cls-4{font-size:24.3px;font-family:TrebuchetMS, Trebuchet MS;}.cls-5{letter-spacing:-0.06em;}.cls-6{letter-spacing:0em;}</style></defs><path class="cls-1" d="M24.54,84.84c-.09-14,17.6-23.16,40.76-23.16s48.48,8.19,48.48,40.19v28c0,5.84,2.66,9.67,7.77,9.67s7.72-3.83,7.72-9.67V61.68H134v68.21c0,5.89,2.75,9.67,7.77,9.67s7.92-3.83,7.86-9.67c-.14-16.49-.14,4-.14-28s25.32-40.19,48.37-40.19,40.86,9.37,40.86,23.16c0,5.2-3,12.47-14,13.6-25.82,2.7-25.82-25.62-10.33-27.88a38.61,38.61,0,0,0-28.27,2.16c-11.75,5.69-11.3,22.28-11.3,29.15v28c0,24.39-35.89,24.39-43.22,13.11-7.33,11.29-43.12,11.29-43.12-13.11v-28c0-6.87.49-23.46-11.36-29.15A38,38,0,0,0,49,70.56c15.39,2.25,15.39,30.57-10.38,27.88C27.59,97.31,24.54,90,24.54,84.84Z" transform="translate(-24.11 -4)"/><path class="cls-2" d="M169.43,58.78c5.81-6.09,10.38-16.74,23.9-13.55-3.69-11.14-29.2-17.42-41.4-9.08s-11.11,17-6.74,23.32S159.26,69.43,169.43,58.78Z" transform="translate(-24.11 -4)"/><path class="cls-2" d="M93.42,55C91.21,44.5,85.85,38.12,71.5,40.32c11.8-13.94,35.3-13.39,44.2-2.11s5,20.76-.94,25.38S95.69,65.41,93.42,55Z" transform="translate(-24.11 -4)"/><path class="cls-2" d="M120.86,26c2.51-8.39,10.67-13.7,5.75-22,15-.39,22.13,14.33,20.06,25.91S135.86,44.06,129.86,43,118.5,34,120.86,26Z" transform="translate(-24.11 -4)"/><path class="cls-3" d="M131.63,47.05a5.23,5.23,0,1,1-5.16,5.29.28.28,0,0,1,0-.09A5.24,5.24,0,0,1,131.63,47.05Z" transform="translate(-24.11 -4)"/><path class="cls-3" d="M80.49,92.94c.39,2.11.79,5,1,6.28-21.58,7.26-32.54,16.73-32.54,26.5,0,12.47,11.65,20.32,31.56,9a15.65,15.65,0,0,1,.35,4c-8.61,10.7-54.53,20.12-56.64-10C21.84,95.1,65.65,105.3,80.49,92.94Z" transform="translate(-24.11 -4)"/><path class="cls-3" d="M182.32,92.94c-.2,1.91-.79,5-.94,6.28,21.54,7.26,32.5,16.73,32.5,26.5,0,12.47-11.6,20.32-31.56,9a7.77,7.77,0,0,0-.35,3.88c8.56,10.7,54.53,20.22,56.64-9.86C241,95.1,197.21,105.3,182.32,92.94Z" transform="translate(-24.11 -4)"/><text class="cls-4" transform="translate(0 179.82)">Alex<tspan class="cls-5" x="46.93" y="0"> </tspan><tspan class="cls-6" x="52.91" y="0">Andersen Ølund</tspan></text></svg>